<?xml version="1.0" encoding="iso-8859-1"?>
<!-- Uploaded to: SVG Repo, www.svgrepo.com, Generator: SVG Repo Mixer Tools -->
<svg version="1.1" id="Layer_1" xmlns="http://www.w3.org/2000/svg" xmlns:xlink="http://www.w3.org/1999/xlink" 
	 viewBox="0 0 512 512" xml:space="preserve">
<path style="fill:#003B8E;" d="M366.001,153.114l-16.684-92.134c-1.437-7.938-8.35-13.711-16.417-13.711H174.955
	c-8.067,0-14.98,5.773-16.417,13.711l-16.684,92.134c-0.881,4.866,0.44,9.873,3.612,13.668c3.17,3.796,7.859,5.99,12.806,5.99
	h191.313c4.945,0,9.636-2.193,12.806-5.99C365.56,162.986,366.882,157.98,366.001,153.114z"/>
<path style="fill:#005A95;" d="M253.927,47.268h-78.972c-8.067,0-14.98,5.773-16.417,13.711l-16.684,92.134
	c-0.881,4.866,0.44,9.873,3.612,13.668c3.17,3.796,7.859,5.99,12.806,5.99h95.657V47.268z"/>
<path style="fill:#1D1D1F;" d="M448.577,99.082h-59.322c-9.214,0-16.684,7.47-16.684,16.684v40.32
	c0,9.214,7.47,16.684,16.684,16.684h59.322c9.214,0,16.684-7.47,16.684-16.684v-40.32
	C465.262,106.552,457.792,99.082,448.577,99.082z"/>
<path style="fill:#3E3E42;" d="M418.916,99.082h-29.66c-9.214,0-16.684,7.47-16.684,16.684v40.32c0,9.214,7.47,16.684,16.684,16.684
	h29.661V99.082H418.916z"/>
<path style="fill:#005A95;" d="M512,179.701c0-22.22-18.078-40.298-40.297-40.298H40.298C18.078,139.402,0,157.48,0,179.701v244.733
	c0,22.22,18.078,40.298,40.298,40.298h431.405c22.22,0,40.297-18.078,40.297-40.298L512,179.701L512,179.701z"/>
<path style="fill:#31AAEF;" d="M253.647,139.402H40.298C18.078,139.402,0,157.48,0,179.701v244.733
	c0,22.22,18.078,40.298,40.298,40.298h213.349V139.402z"/>
<g>
	<circle style="fill:#DF871E;" cx="256.004" cy="316.812" r="130.505"/>
	<path style="fill:#DF871E;" d="M306.947,110.669H201.65c-9.214,0-16.684-7.47-16.684-16.684S192.436,77.3,201.65,77.3h105.297
		c9.214,0,16.684,7.47,16.684,16.684S316.161,110.669,306.947,110.669z"/>
	<circle style="fill:#DF871E;" cx="447.84" cy="202.992" r="19.279"/>
</g>
<g>
	<path style="fill:#F7DC4D;" d="M253.927,77.3H201.65c-9.214,0-16.684,7.47-16.684,16.684s7.47,16.684,16.684,16.684h52.277V77.3z"
		/>
	<path style="fill:#F7DC4D;" d="M253.647,186.333c-70.991,1.257-128.155,59.188-128.155,130.479s57.164,129.222,128.155,130.479
		V186.333z"/>
</g>
<circle style="fill:#1D1D1F;" cx="254.914" cy="318.714" r="87.181"/>
<circle style="fill:#FFFFFF;" cx="310.884" cy="257.194" r="43.173"/>
<path style="fill:#3E3E42;" d="M253.647,231.569c-47.559,0.681-85.909,39.423-85.909,87.144s38.349,86.464,85.909,87.144
	L253.647,231.569L253.647,231.569z"/>
<path style="fill:#F7DC4D;" d="M428.556,202.988c0,10.648,8.631,19.279,19.279,19.279v-38.56
	C437.189,183.708,428.556,192.341,428.556,202.988z"/>
<path style="fill:#30767A;" d="M74.479,380.713c0,10.146-8.225,18.372-18.372,18.372H0V201.654h56.107
	c10.146,0,18.372,8.225,18.372,18.372V380.713z"/>
<rect y="201.657" style="fill:#E4F3F6;" width="37.239" height="197.431"/>
</svg>